<mxfile host="app.diagrams.net" modified="2024-05-20T16:39:35.578Z" agent="Mozilla/5.0 (Windows NT 10.0; Win64; x64) AppleWebKit/537.36 (KHTML, like Gecko) Chrome/124.0.0.0 Safari/537.36 Edg/124.0.0.0" etag="5uRyQaLrGuNcxa2z5AUQ" version="24.4.4" type="device">
  <diagram name="Page-1" id="8FkDO27JwFMJNBlHgbky">
    <mxGraphModel dx="4132" dy="2290" grid="1" gridSize="10" guides="1" tooltips="1" connect="1" arrows="1" fold="1" page="1" pageScale="1" pageWidth="827" pageHeight="583" math="0" shadow="0">
      <root>
        <mxCell id="0" />
        <mxCell id="1" parent="0" />
        <mxCell id="P7zPpGAHPO_u1_TjZG07-8" style="edgeStyle=orthogonalEdgeStyle;rounded=0;orthogonalLoop=1;jettySize=auto;html=1;" edge="1" parent="1" source="P7zPpGAHPO_u1_TjZG07-1" target="P7zPpGAHPO_u1_TjZG07-7">
          <mxGeometry relative="1" as="geometry" />
        </mxCell>
        <mxCell id="P7zPpGAHPO_u1_TjZG07-1" value="START PROGRAM" style="whiteSpace=wrap;html=1;aspect=fixed;" vertex="1" parent="1">
          <mxGeometry x="375" y="40" width="80" height="80" as="geometry" />
        </mxCell>
        <mxCell id="P7zPpGAHPO_u1_TjZG07-12" style="edgeStyle=orthogonalEdgeStyle;rounded=0;orthogonalLoop=1;jettySize=auto;html=1;entryX=0;entryY=0.5;entryDx=0;entryDy=0;" edge="1" parent="1" source="P7zPpGAHPO_u1_TjZG07-5" target="P7zPpGAHPO_u1_TjZG07-6">
          <mxGeometry relative="1" as="geometry" />
        </mxCell>
        <mxCell id="P7zPpGAHPO_u1_TjZG07-5" value="WAIT FOR INCOME MESSAGE" style="rounded=0;whiteSpace=wrap;html=1;" vertex="1" parent="1">
          <mxGeometry x="348" y="290" width="135" height="60" as="geometry" />
        </mxCell>
        <mxCell id="P7zPpGAHPO_u1_TjZG07-14" style="edgeStyle=orthogonalEdgeStyle;rounded=0;orthogonalLoop=1;jettySize=auto;html=1;" edge="1" parent="1" source="P7zPpGAHPO_u1_TjZG07-6" target="P7zPpGAHPO_u1_TjZG07-13">
          <mxGeometry relative="1" as="geometry" />
        </mxCell>
        <mxCell id="P7zPpGAHPO_u1_TjZG07-6" value="DECODE INCOME MESSAGE" style="rounded=0;whiteSpace=wrap;html=1;" vertex="1" parent="1">
          <mxGeometry x="560" y="290" width="135" height="60" as="geometry" />
        </mxCell>
        <mxCell id="P7zPpGAHPO_u1_TjZG07-11" style="edgeStyle=orthogonalEdgeStyle;rounded=0;orthogonalLoop=1;jettySize=auto;html=1;" edge="1" parent="1" source="P7zPpGAHPO_u1_TjZG07-7" target="P7zPpGAHPO_u1_TjZG07-5">
          <mxGeometry relative="1" as="geometry" />
        </mxCell>
        <mxCell id="P7zPpGAHPO_u1_TjZG07-7" value="START LORA GATEWAY &amp;amp; CREATE LOGS FOLDER" style="rounded=0;whiteSpace=wrap;html=1;" vertex="1" parent="1">
          <mxGeometry x="334" y="160" width="162" height="80" as="geometry" />
        </mxCell>
        <mxCell id="P7zPpGAHPO_u1_TjZG07-16" style="edgeStyle=orthogonalEdgeStyle;rounded=0;orthogonalLoop=1;jettySize=auto;html=1;" edge="1" parent="1" source="P7zPpGAHPO_u1_TjZG07-13" target="P7zPpGAHPO_u1_TjZG07-15">
          <mxGeometry relative="1" as="geometry" />
        </mxCell>
        <mxCell id="P7zPpGAHPO_u1_TjZG07-13" value="CHECK bitwise parity and checksum" style="rounded=0;whiteSpace=wrap;html=1;" vertex="1" parent="1">
          <mxGeometry x="560" y="430" width="135" height="60" as="geometry" />
        </mxCell>
        <mxCell id="P7zPpGAHPO_u1_TjZG07-18" style="edgeStyle=orthogonalEdgeStyle;rounded=0;orthogonalLoop=1;jettySize=auto;html=1;" edge="1" parent="1" source="P7zPpGAHPO_u1_TjZG07-15" target="P7zPpGAHPO_u1_TjZG07-17">
          <mxGeometry relative="1" as="geometry" />
        </mxCell>
        <mxCell id="P7zPpGAHPO_u1_TjZG07-15" value="SEND ACK MESSAGE" style="rounded=0;whiteSpace=wrap;html=1;" vertex="1" parent="1">
          <mxGeometry x="160" y="430" width="135" height="60" as="geometry" />
        </mxCell>
        <mxCell id="P7zPpGAHPO_u1_TjZG07-19" style="edgeStyle=orthogonalEdgeStyle;rounded=0;orthogonalLoop=1;jettySize=auto;html=1;entryX=0;entryY=0.5;entryDx=0;entryDy=0;" edge="1" parent="1" source="P7zPpGAHPO_u1_TjZG07-17" target="P7zPpGAHPO_u1_TjZG07-5">
          <mxGeometry relative="1" as="geometry" />
        </mxCell>
        <mxCell id="P7zPpGAHPO_u1_TjZG07-17" value="SAVE DATA INTO&lt;div&gt;LOG FILE&lt;/div&gt;" style="rounded=0;whiteSpace=wrap;html=1;" vertex="1" parent="1">
          <mxGeometry x="160" y="290" width="135" height="60" as="geometry" />
        </mxCell>
      </root>
    </mxGraphModel>
  </diagram>
</mxfile>
